<svg xmlns="http://www.w3.org/2000/svg" xmlns:svgjs="http://svgjs.com/svgjs" xmlns:xlink="http://www.w3.org/1999/xlink" width="288" height="288"><svg xmlns="http://www.w3.org/2000/svg" width="288" height="288" enable-background="new 0 0 612 612" viewBox="0 0 612 612"><path fill="#0062ff" d="M472.322,235.219c-1.655,0-3.312,0.031-4.969,0.089c-8.127-81.861-77.388-146.003-161.352-146.003
				c-83.963,0-153.226,64.143-161.352,146.004c-1.659-0.06-3.317-0.089-4.972-0.089C62.659,235.219,0,297.88,0,374.897
				c0,77.02,62.659,139.678,139.678,139.678c8.967,0,16.234-7.268,16.234-16.234c0-8.965-7.268-16.234-16.234-16.234
				c-59.113,0-107.209-48.093-107.209-107.209s48.096-107.209,107.209-107.209c5.916,0,11.893,0.495,17.77,1.472
				c4.745,0.789,9.597-0.568,13.245-3.704c3.647-3.136,5.717-7.729,5.65-12.54l-0.009-0.586c-0.005-0.292-0.011-0.584-0.011-0.878
				c0-71.504,58.173-129.679,129.68-129.679c71.506,0,129.679,58.175,129.679,129.679c0,0.276-0.005,0.551-0.009,0.825l-0.009,0.675
				c-0.058,4.805,2.018,9.388,5.666,12.515c3.649,3.126,8.489,4.479,13.235,3.689c5.858-0.975,11.832-1.471,17.759-1.471
				c59.116,0,107.209,48.094,107.209,107.209c0,59.115-48.093,107.209-107.209,107.209c-8.965,0-16.234,7.269-16.234,16.234
				c0,8.967,7.269,16.234,16.234,16.234c77.02,0,139.678-62.658,139.678-139.678C612,297.88,549.342,235.219,472.322,235.219z" class="color000 svgShape"/><path fill="#0062ff" d="M228.476 245.689c0-38.489 31.312-69.802 69.802-69.802 8.967 0 16.234-7.268 16.234-16.234 0-8.965-7.268-16.234-16.234-16.234-56.393 0-102.271 45.878-102.271 102.271 0 8.967 7.268 16.234 16.234 16.234C221.207 261.924 228.476 254.656 228.476 245.689zM445.537 426.62l-129.941-95.209c-5.712-4.186-13.479-4.186-19.19 0l-130.535 95.644c-5.664 4.149-8.02 11.47-5.835 18.143 2.184 6.674 8.409 11.187 15.431 11.187h46.962v50.075c0 8.967 7.269 16.234 16.234 16.234h134.676c8.967 0 16.234-7.268 16.234-16.234v-50.075h46.965c.008 0 .018 0 .027 0 8.965 0 16.234-7.268 16.234-16.234C452.797 434.502 449.914 429.527 445.537 426.62zM373.338 423.916c-8.965 0-16.234 7.269-16.234 16.234v50.075H254.896V440.15c0-8.965-7.268-16.234-16.234-16.234H225.09l80.912-59.283 80.911 59.283H373.338z" class="color000 svgShape"/></svg></svg>